<?xml version="1.0" standalone="no"?><!DOCTYPE svg PUBLIC "-//W3C//DTD SVG 1.1//EN" "http://www.w3.org/Graphics/SVG/1.1/DTD/svg11.dtd"><svg t="1620356230375" class="icon" viewBox="0 0 1024 1024" version="1.1" xmlns="http://www.w3.org/2000/svg" p-id="1136" width="64" height="64" xmlns:xlink="http://www.w3.org/1999/xlink"><defs><style type="text/css"></style></defs><path d="M264.1 512.6c0-137.7 112-249.6 249.6-249.6 59.8 0 116.6 21.2 157.9 55.4l-105.7 44 15.4 36.9 160.3-66.8-48.9-168.9-38.4 11.1 29.8 102.9C637.3 243.4 577 223 513.8 223c-159.7 0-289.6 129.9-289.6 289.6 0 34.6 6.1 68.6 18.1 100.8l37.4-13.9c-10.3-27.8-15.6-57.1-15.6-86.9z" fill="#2969B5" p-id="1137"></path><path d="M791.4 430.1c-13.1-6.4-19.7-9.6-32.8-16l-10.3 4.2-179.5 61.9c-10.8-15.4-28.7-25.5-49-25.5-33.1 0-59.9 26.8-59.9 59.9s26.8 59.9 59.9 59.9c31.7 0 57.6-24.6 59.7-55.8l177.7-61.3c5 21.9 7 44.4 5.9 67.3-6.4 129.7-113 234.2-242.8 237.5-68.3 1.7-126.8-18.1-173-63.2l108.4-42.1-14.5-37.2-161.8 62.8 44.7 170.1 38.6-10.2-26.1-99.2c51.7 42.4 115.4 61.4 187.4 58.9 157.8-5.5 283.1-138.8 279.2-296.7-0.5-25.7-4.5-50.9-11.8-75.3z" fill="#2969B5" p-id="1138"></path></svg>